<svg width="184" height="116" viewBox="0 0 184 116" fill="none" xmlns="http://www.w3.org/2000/svg">
<path d="M92.813 90.9213C117.441 90.9213 137.407 71.0156 137.407 46.4606C137.407 21.9057 117.441 2 92.813 2C68.1846 2 48.2194 21.9057 48.2194 46.4606C48.2194 71.0156 68.1846 90.9213 92.813 90.9213Z" fill="#15171C" stroke="#E5BC16" stroke-width="2.5"/>
<path fill-rule="evenodd" clip-rule="evenodd" d="M85.6677 80.9593C88.0089 81.3901 90.3907 81.614 92.8133 81.631C112.295 81.631 128.089 65.8847 128.089 46.4606C128.089 27.0366 112.295 11.2903 92.8133 11.2903C87.8086 11.2903 83.0474 12.3294 78.7347 14.203C71.2404 17.4589 65.1008 23.2348 61.3927 30.4573C58.9281 35.2578 57.5377 40.6973 57.5377 46.4606C57.5377 51.6897 58.6823 56.6523 60.7353 61.1129C62.201 64.2974 64.1298 67.2261 66.4356 69.8132" fill="#232429"/>
<path d="M85.6677 80.9593C88.0089 81.3901 90.3907 81.614 92.8133 81.631C112.295 81.631 128.089 65.8847 128.089 46.4606C128.089 27.0366 112.295 11.2903 92.8133 11.2903C87.8086 11.2903 83.0474 12.3294 78.7347 14.203C71.2404 17.4589 65.1008 23.2348 61.3927 30.4573C58.9281 35.2578 57.5377 40.6973 57.5377 46.4606C57.5377 51.6897 58.6823 56.6523 60.7353 61.1129C62.201 64.2974 64.1298 67.2261 66.4356 69.8132" stroke="#E5BC16" stroke-width="2.5" stroke-linecap="round"/>
<path d="M70.5792 73.7671C73.4387 76.0843 76.6692 77.964 80.1681 79.304" stroke="#E5BC16" stroke-width="2.5" stroke-linecap="round"/>
<path d="M129.42 81.6311L137.407 89.5942" stroke="#E5BC16" stroke-width="2.5"/>
<path fill-rule="evenodd" clip-rule="evenodd" d="M136.116 88.3071C133.597 90.8191 133.597 94.8918 136.116 97.4038L150.873 112.116C153.392 114.628 157.477 114.628 159.996 112.116C162.516 109.604 162.516 105.531 159.996 103.019L145.24 88.3071C142.721 85.7951 138.636 85.7951 136.116 88.3071Z" fill="#414455" stroke="#E5BC16" stroke-width="2.5"/>
<path d="M142.731 90.9211L157.374 105.52" stroke="#232429" stroke-width="2.5" stroke-linecap="round"/>
<path fill-rule="evenodd" clip-rule="evenodd" d="M84.1609 31.1981C84.1609 46.5907 96.6764 59.0689 112.115 59.0689C115.148 59.0689 118.068 58.5874 120.802 57.6968C116.339 68.7402 105.489 76.5355 92.8134 76.5355C76.1538 76.5355 62.6486 63.0706 62.6486 46.4607C62.6486 31.4098 73.7375 18.9412 88.2142 16.7332C85.6424 20.9513 84.1609 25.9022 84.1609 31.1981Z" fill="#414455"/>
<path d="M93.4785 21.908C91.7835 21.908 90.1273 22.0742 88.5257 22.3913M83.6876 23.867C74.5813 27.6823 68.1866 36.6588 68.1866 47.1244" stroke="#FFD9C7" stroke-width="2.5" stroke-linecap="round"/>
<path d="M164.263 46.8288H153.38M172.682 36.5068H149.818H172.682ZM182 36.5068H179.043H182Z" stroke="#FFD9C7" stroke-width="2.5" stroke-linecap="round" stroke-linejoin="round"/>
<path d="M44.4597 76.0266H33.5765M38.2355 64.3774H15.372H38.2355ZM7.61905 64.3774H2H7.61905Z" stroke="#FFD9C7" stroke-width="2.5" stroke-linecap="round" stroke-linejoin="round"/>
</svg>
